# xmcd CD database file
#
# Track frame offsets:
#	150
#	13110
#	25690
#	39313
#	52370
#	66019
#	77483
#	90882
#	103211
#	116558
#	129630
#	143095
#	155000
#	167595
#	180450
#	192459
#	205035
#	215062
#	228830
#	240128
#
# Disc length: 3382 seconds
#
# Revision: 0
# Processed by: cddbd v1.5.2PL0 Copyright (c) Steve Scherf et al.
# Submitted via: CDex 1.70beta2
#
DISCID=060d3414
DTITLE=Various Artist - Jazz Roads CD333 - Bebop - Fats Navarro Vol.1 (1946)
DYEAR=2008
DGENRE=Jazz
TTITLE0=Kenny Clarke And His 52nd Street Boys - Epistrophy
TTITLE1=Kenny Clarke And His 52nd Street Boys - 52nd Street Theme
TTITLE2=Kenny Clarke And His 52nd Street Boys - Oop-Bop-Sh-Bam
TTITLE3=Kenny Clarke And His 52nd Street Boys - Rue Chaptal (Royal Roost)
TTITLE4=The Be Bop Boys - Boppin' A Riff - Part 1
TTITLE5=The Be Bop Boys - Boppin' A Riff - Part 2
TTITLE6=The Be Bop Boys - Fat Boy - Part 1
TTITLE7=The Be Bop Boys - Fat Boy - Part 2
TTITLE8=The Be Bop Boys - Everything's Cool - Part 1
TTITLE9=The Be Bop Boys - Everything's Cool - Part 2
TTITLE10=The Be Bop Boys - Webb City - Part 1
TTITLE11=The Be Bop Boys - Webb City - Part 2
TTITLE12=Eddie Davis And His Be Boppers - Callin' Dr. Jazz
TTITLE13=Eddie Davis And His Be Boppers - Fracture
TTITLE14=Eddie Davis And His Be Boppers - Hollerin' And Screaming
TTITLE15=Eddie Davis And His Be Boppers - Stealin' Trash
TTITLE16=Eddie Davis And His Be Boppers - Just A Mystery
TTITLE17=Eddie Davis And His Be Boppers - Red Pepper
TTITLE18=Eddie Davis And His Be Boppers - Spinal
TTITLE19=Eddie Davis And His Be Boppers - Maternity
EXTD=YEAR: 2008
EXTT0=
EXTT1=
EXTT2=
EXTT3=
EXTT4=
EXTT5=
EXTT6=
EXTT7=
EXTT8=
EXTT9=
EXTT10=
EXTT11=
EXTT12=
EXTT13=
EXTT14=
EXTT15=
EXTT16=
EXTT17=
EXTT18=
EXTT19=
PLAYORDER=
